<?xml version="1.0" encoding="UTF-8"?>
<svg id="Laag_1" data-name="Laag 1" xmlns="http://www.w3.org/2000/svg" xmlns:xlink="http://www.w3.org/1999/xlink" viewBox="0 0 350 350">
  <defs>
    <style>
      .cls-1 {
        fill: none;
      }

      .cls-2 {
        clip-path: url(#clippath);
      }

      .cls-3 {
        fill: #fff;
      }

      .cls-4 {
        fill: #2b2bd1;
      }

      .cls-5 {
        clip-path: url(#clippath-1);
      }

      .cls-6 {
        clip-path: url(#clippath-3);
      }

      .cls-7 {
        clip-path: url(#clippath-2);
      }
    </style>
    <clipPath id="clippath">
      <rect class="cls-1" x="7" y="230.5" width="336" height="56"/>
    </clipPath>
    <clipPath id="clippath-1">
      <rect class="cls-1" x="7" y="230.5" width="336" height="56"/>
    </clipPath>
    <clipPath id="clippath-2">
      <rect class="cls-1" x="73" y="24.5" width="204" height="204"/>
    </clipPath>
    <clipPath id="clippath-3">
      <rect class="cls-1" x="73" y="24.5" width="204" height="204"/>
    </clipPath>
  </defs>
  <rect class="cls-4" x="-.5" y=".5" width="350" height="350"/>
  <g>
    <g id="Illustratie_21" data-name="Illustratie 21">
      <g class="cls-2">
        <g class="cls-5">
          <path class="cls-3" d="M32.09,279.83v-25.78c0-.07,.06-.13,.13-.13h7.55c.07,0,.13,.06,.13,.13v3.2c0,.13,.16,.17,.23,.07,.92-1.29,2.03-2.3,3.31-3.03,1.4-.79,2.9-1.18,4.51-1.18,.92,0,1.86,.14,2.85,.41,.93,.26,1.72,.58,2.37,.98,.06,.04,.08,.11,.05,.17l-3.14,6.35c-.03,.07-.12,.09-.18,.05-.55-.35-1.18-.64-1.9-.85-.77-.23-1.49-.34-2.15-.34-1.02,0-1.98,.26-2.9,.79-.92,.53-1.65,1.21-2.21,2.05-.56,.84-.84,1.74-.84,2.71v14.42c0,.07-.06,.13-.13,.13h-7.55c-.07,0-.13-.06-.13-.13"/>
          <path class="cls-3" d="M69.29,280.78c-2.81,0-5.34-.61-7.57-1.82-2.23-1.21-4-2.86-5.3-4.95-1.31-2.09-1.96-4.44-1.96-7.07,0-1.93,.37-3.74,1.11-5.42,.74-1.68,1.77-3.15,3.09-4.41,1.32-1.26,2.86-2.25,4.6-2.95,1.75-.7,3.64-1.06,5.67-1.06,2.71,0,5.09,.56,7.13,1.69,2.04,1.13,3.64,2.69,4.78,4.69,1.14,2,1.72,4.33,1.72,6.99,0,.22,0,.41-.01,.57,0,.15-.03,.41-.08,.78,0,.07-.06,.12-.13,.12h-19.72c-.07,0-.13,.06-.13,.13,.02,1.27,.32,2.37,.9,3.32,.6,.98,1.45,1.75,2.53,2.3,1.08,.55,2.35,.83,3.79,.83,1.36,0,2.56-.26,3.6-.79,1.02-.51,2-1.33,2.95-2.44,.04-.04,.1-.06,.15-.03l5.41,2.71c.07,.03,.09,.12,.05,.18-1.22,2.04-2.92,3.65-5.12,4.81-2.24,1.19-4.73,1.78-7.48,1.78m-6.36-17.14h11.8c.08,0,.14-.08,.13-.16-.18-.93-.53-1.75-1.05-2.44-.55-.73-1.25-1.29-2.1-1.68-.85-.39-1.81-.58-2.87-.58-1.14,0-2.14,.19-3,.58-.86,.39-1.56,.95-2.09,1.68-.5,.69-.82,1.51-.95,2.44-.01,.08,.05,.15,.13,.15"/>
          <path class="cls-3" d="M97.85,280.78c-2.59,0-4.61-.83-6.05-2.48-1.44-1.65-2.16-3.96-2.16-6.93v-11.39c0-.07-.06-.13-.13-.13h-3.23c-.07,0-.13-.06-.13-.13v-5.67c0-.07,.06-.13,.13-.13h3.23c.07,0,.13-.06,.13-.13v-9.51c0-.07,.06-.13,.13-.13h7.55c.07,0,.13,.06,.13,.13v9.51c0,.07,.06,.13,.13,.13h5.46c.07,0,.13,.06,.13,.13v5.67c0,.07-.06,.13-.13,.13h-5.46c-.07,0-.13,.06-.13,.13v10.83c0,.98,.2,1.73,.6,2.24,.4,.51,.96,.76,1.69,.76s1.49-.24,2.2-.71c.07-.05,.17-.02,.19,.06l1.87,5.99c.02,.06,0,.13-.06,.16-.86,.45-1.81,.81-2.87,1.07-1.09,.27-2.17,.41-3.22,.41"/>
          <path class="cls-3" d="M123.02,280.78c-4.75,0-8.17-.94-10.27-2.82-2.1-1.88-3.15-4.96-3.15-9.23v-14.67c0-.07,.06-.13,.13-.13h7.55c.07,0,.13,.06,.13,.13v12.84c0,2.75,.43,4.69,1.28,5.82,.86,1.14,2.3,1.7,4.34,1.7s3.52-.57,4.36-1.7c.84-1.14,1.26-3.08,1.26-5.82v-12.84c0-.07,.06-.13,.13-.13h7.55c.07,0,.13,.06,.13,.13v14.67c0,4.27-1.05,7.35-3.14,9.23-2.09,1.88-5.52,2.82-10.29,2.82"/>
          <path class="cls-3" d="M144.51,279.83v-25.78c0-.07,.06-.13,.13-.13h7.55c.07,0,.13,.06,.13,.13v3.2c0,.13,.16,.17,.23,.07,.92-1.29,2.03-2.3,3.31-3.03,1.4-.79,2.9-1.18,4.51-1.18,.92,0,1.86,.14,2.85,.41,.93,.26,1.72,.58,2.37,.98,.06,.04,.08,.11,.05,.17l-3.14,6.35c-.03,.07-.12,.09-.18,.05-.55-.35-1.18-.64-1.9-.85-.77-.23-1.49-.34-2.15-.34-1.02,0-1.98,.26-2.9,.79-.92,.53-1.65,1.21-2.21,2.05-.56,.84-.84,1.74-.84,2.71v14.42c0,.07-.06,.13-.13,.13h-7.55c-.07,0-.13-.06-.13-.13"/>
          <path class="cls-3" d="M169.51,279.64v-25.4c0-.18,.14-.32,.32-.32h7.16c.18,0,.32,.14,.32,.32v1.79c0,.28,.34,.43,.54,.23,.9-.86,1.97-1.57,3.21-2.14,1.5-.68,3.16-1.02,4.97-1.02,2,0,3.76,.44,5.28,1.31,1.52,.87,2.71,2.09,3.57,3.64,.86,1.55,1.3,3.36,1.3,5.43v16.16c0,.18-.14,.32-.32,.32h-7.16c-.18,0-.32-.14-.32-.32v-14.5c0-1.86-.49-3.32-1.46-4.36-.97-1.04-2.31-1.56-4-1.56-1.15,0-2.15,.23-2.99,.7-.84,.47-1.48,1.1-1.93,1.91-.45,.81-.67,1.72-.67,2.73v15.09c0,.18-.14,.32-.32,.32h-7.16c-.18,0-.32-.14-.32-.32"/>
          <path class="cls-3" d="M204.35,279.83v-43.48c0-.07,.06-.13,.13-.13h7.55c.07,0,.13,.06,.13,.13v43.48c0,.07-.06,.13-.13,.13h-7.55c-.07,0-.13-.06-.13-.13"/>
          <path class="cls-3" d="M233.34,280.78c-2.81,0-5.34-.61-7.57-1.82-2.23-1.21-4-2.86-5.3-4.95-1.31-2.09-1.96-4.44-1.96-7.07,0-1.93,.37-3.74,1.11-5.42,.74-1.68,1.77-3.15,3.09-4.41,1.32-1.26,2.86-2.25,4.6-2.95,1.75-.7,3.64-1.06,5.67-1.06,2.71,0,5.09,.56,7.13,1.69,2.04,1.13,3.64,2.69,4.78,4.69,1.14,2,1.72,4.33,1.72,6.99,0,.22,0,.41-.01,.57,0,.15-.03,.41-.08,.78,0,.07-.06,.12-.13,.12h-19.72c-.07,0-.13,.06-.13,.13,.02,1.27,.32,2.37,.9,3.32,.6,.98,1.45,1.75,2.53,2.3,1.08,.55,2.35,.83,3.79,.83,1.36,0,2.56-.26,3.6-.79,1.02-.51,2-1.33,2.95-2.44,.04-.04,.1-.06,.15-.03l5.41,2.71c.07,.03,.09,.12,.05,.18-1.22,2.04-2.92,3.65-5.12,4.81-2.24,1.19-4.73,1.78-7.48,1.78m-6.36-17.14h11.8c.08,0,.14-.08,.13-.16-.18-.93-.53-1.75-1.05-2.44-.55-.73-1.25-1.29-2.1-1.68-.85-.39-1.81-.58-2.87-.58-1.14,0-2.14,.19-3,.58-.86,.39-1.56,.95-2.09,1.68-.5,.69-.82,1.51-.95,2.44-.01,.08,.05,.15,.13,.15"/>
          <path class="cls-3" d="M260.35,280.78c-2.2,0-4.17-.35-5.91-1.04-1.71-.68-3.13-1.67-4.27-2.98-.04-.04-.04-.11-.01-.16l3.14-5.02c.04-.07,.14-.08,.2-.02,1.05,1.09,2.15,1.94,3.29,2.53,1.19,.61,2.37,.92,3.56,.92,.66,0,1.23-.11,1.72-.33,.48-.22,.86-.54,1.14-.95,.28-.42,.42-.92,.42-1.51,0-.68-.19-1.21-.57-1.6-.38-.39-.96-.75-1.74-1.08-.78-.33-1.79-.75-3.03-1.26-1.05-.44-2.06-.94-3.03-1.5-.97-.56-1.75-1.27-2.35-2.14-.6-.86-.9-1.96-.9-3.28,0-1.61,.45-3.03,1.35-4.26,.9-1.23,2.14-2.19,3.73-2.89,1.59-.7,3.41-1.04,5.48-1.04,1.29,0,2.64,.2,4.06,.58,1.38,.38,2.85,.95,4.42,1.72,.07,.03,.09,.11,.06,.18l-2.54,4.77c-.03,.07-.12,.09-.18,.05-2.14-1.36-4.06-2.04-5.76-2.04-.97,0-1.74,.21-2.31,.64-.58,.42-.86,.96-.86,1.6,0,.61,.3,1.14,.9,1.59,.6,.45,1.34,.85,2.21,1.2,.87,.35,1.71,.67,2.51,.95,1.31,.47,2.46,1,3.47,1.58,1.01,.58,1.8,1.33,2.38,2.25,.58,.92,.86,2.16,.86,3.7,0,1.88-.45,3.48-1.36,4.79-.91,1.31-2.21,2.32-3.92,3.01-1.7,.69-3.75,1.04-6.14,1.04"/>
          <path class="cls-3" d="M285.88,280.78c-2.2,0-4.17-.35-5.91-1.04-1.71-.68-3.13-1.67-4.27-2.98-.04-.04-.04-.11-.01-.16l3.14-5.02c.04-.07,.14-.08,.2-.02,1.05,1.09,2.15,1.94,3.29,2.53,1.19,.61,2.37,.92,3.56,.92,.66,0,1.23-.11,1.72-.33,.48-.22,.86-.54,1.14-.95,.28-.42,.42-.92,.42-1.51,0-.68-.19-1.21-.57-1.6-.38-.39-.96-.75-1.74-1.08-.78-.33-1.79-.75-3.03-1.26-1.05-.44-2.06-.94-3.03-1.5-.97-.56-1.75-1.27-2.35-2.14-.6-.86-.9-1.96-.9-3.28,0-1.61,.45-3.03,1.35-4.26,.9-1.23,2.14-2.19,3.73-2.89,1.59-.7,3.41-1.04,5.48-1.04,1.29,0,2.64,.2,4.06,.58,1.38,.38,2.85,.95,4.42,1.72,.07,.03,.09,.11,.06,.18l-2.54,4.77c-.03,.07-.12,.09-.18,.05-2.14-1.36-4.06-2.04-5.76-2.04-.97,0-1.74,.21-2.31,.64-.58,.42-.86,.96-.86,1.6,0,.61,.3,1.14,.9,1.59,.6,.45,1.34,.85,2.21,1.2,.87,.35,1.71,.67,2.51,.95,1.31,.47,2.46,1,3.47,1.58,1.01,.58,1.8,1.33,2.38,2.25,.58,.92,.86,2.16,.86,3.7,0,1.88-.45,3.48-1.36,4.79-.91,1.31-2.21,2.32-3.92,3.01-1.7,.69-3.75,1.04-6.14,1.04"/>
          <path class="cls-3" d="M305.6,279.94h12.02c.16,0,.29-.14,.29-.31v-8c0-.17-.13-.31-.29-.31h-12.02c-.16,0-.29,.14-.29,.31v8c0,.17,.13,.31,.29,.31"/>
          <path class="cls-3" d="M305.3,267.66v2.09c0,.18,.13,.33,.29,.33h12.02c.16,0,.29-.15,.29-.33v-2.09c0-.18-.13-.33-.29-.33h-12.02c-.16,0-.29,.15-.29,.33"/>
        </g>
      </g>
    </g>
    <g id="Illustratie_37" data-name="Illustratie 37">
      <g class="cls-7">
        <g class="cls-6">
          <path class="cls-3" d="M122.26,190.43V66.55c0-.91,.76-1.65,1.69-1.65h35.58c.93,0,1.69,.74,1.69,1.65v11.53c0,1.58,2.02,2.23,3.02,1,4.2-5.17,9.1-9.3,14.68-12.38,6.98-3.85,14.49-5.78,22.53-5.78,4.57,0,9.31,.66,14.22,1.99,4.27,1.15,7.93,2.59,10.98,4.31,.76,.43,1.03,1.38,.64,2.15l-14.73,29.16c-.43,.85-1.51,1.19-2.34,.71-2.53-1.47-5.39-2.67-8.58-3.6-3.85-1.12-7.42-1.68-10.72-1.68-5.08,0-9.9,1.29-14.47,3.85-4.57,2.57-8.25,5.9-11.04,10-2.79,4.1-4.19,8.51-4.19,13.23v69.39c0,.91-.76,1.65-1.69,1.65h-35.58c-.93,0-1.69-.74-1.69-1.65"/>
          <path class="cls-3" d="M191.02,192.05h35.53c.48,0,.87-.4,.87-.9v-23.15c0-.5-.39-.9-.87-.9h-35.53c-.48,0-.87,.4-.87,.9v23.15c0,.5,.39,.9,.87,.9"/>
          <path class="cls-3" d="M190.15,156.54v6.06c0,.53,.39,.96,.87,.96h35.53c.48,0,.87-.43,.87-.96v-6.06c0-.53-.39-.96-.87-.96h-35.53c-.48,0-.87,.43-.87,.96"/>
        </g>
      </g>
    </g>
  </g>
</svg>